<svg width="100" height="100" viewBox="0 0 100 100" fill="none" xmlns="http://www.w3.org/2000/svg">
<g clip-path="url(#clip0_1016_3)">
<g clip-path="url(#clip1_1016_3)">
<path d="M-55 49.6519L49.6518 -54.9999" stroke="#E5E5E5"/>
<path d="M-49.4468 55.2052L55.205 -49.4466" stroke="#E5E5E5"/>
<path d="M-43.8936 60.7585L60.7582 -43.8933" stroke="#E5E5E5"/>
<path d="M-38.3398 66.3119L66.312 -38.3399" stroke="#E5E5E5"/>
<path d="M-32.7866 71.8652L71.8652 -32.7866" stroke="#E5E5E5"/>
<path d="M-27.2334 77.4185L77.4184 -27.2333" stroke="#E5E5E5"/>
<path d="M-21.6802 82.9718L82.9716 -21.68" stroke="#E5E5E5"/>
<path d="M-16.1265 88.5251L88.5253 -16.1267" stroke="#E5E5E5"/>
<path d="M-10.5732 94.0785L94.0786 -10.5733" stroke="#E5E5E5"/>
<path d="M-5.02002 99.6318L99.6318 -5.01997" stroke="#E5E5E5"/>
<path d="M0.533203 105.185L105.185 0.533379" stroke="#E5E5E5"/>
<path d="M6.08643 110.739L110.738 6.08672" stroke="#E5E5E5"/>
<path d="M11.6401 116.292L116.292 11.6401" stroke="#E5E5E5"/>
<path d="M17.1934 121.845L121.845 17.1934" stroke="#E5E5E5"/>
<path d="M22.7466 127.399L127.398 22.7468" stroke="#E5E5E5"/>
<path d="M28.2998 132.952L132.952 28.3001" stroke="#E5E5E5"/>
<path d="M33.8535 138.505L138.505 33.8533" stroke="#E5E5E5"/>
<path d="M39.4067 144.058L144.059 39.4067" stroke="#E5E5E5"/>
<path d="M44.96 149.612L149.612 44.96" stroke="#E5E5E5"/>
<path d="M50.5132 155.165L155.165 50.5134" stroke="#E5E5E5"/>
</g>
</g>
<defs>
<clipPath id="clip0_1016_3">
<rect width="100" height="100" fill="white"/>
</clipPath>
<clipPath id="clip1_1016_3">
<rect width="148" height="149.218" fill="white" transform="translate(-55 49.6519) rotate(-45)"/>
</clipPath>
</defs>
</svg>
